HIERARCHY
ROOT Hips
{
  OFFSET 0 0 0
  CHANNELS 6 Xposition Yposition Zposition Zrotation Yrotation Xrotation
  JOINT LeftThigh
  {
    OFFSET 8.409438 0 -5.917753
    CHANNELS 3 Zrotation Yrotation Xrotation
    JOINT LeftLeg
    {
      OFFSET 0 0 -42.358652
      CHANNELS 3 Zrotation Yrotation Xrotation
      JOINT LeftFoot
      {
        OFFSET 0 0 -39.357303
        CHANNELS 3 Zrotation Yrotation Xrotation
      }
    }
  }
  JOINT RightThigh
  {
    OFFSET -8.409438 0 -5.917753
    CHANNELS 3 Zrotation Yrotation Xrotation
    JOINT RightLeg
    {
      OFFSET 0 0 -42.358652
      CHANNELS 3 Zrotation Yrotation Xrotation
      JOINT RightFoot
      {
        OFFSET 0 0 -39.357303
        CHANNELS 3 Zrotation Yrotation Xrotation
      }
    }
  }
  JOINT SpineLow
  {
    OFFSET 0 0 4.719101
    CHANNELS 3 Zrotation Yrotation Xrotation
    JOINT SpineMid
    {
      OFFSET 0 0 12.899191
      CHANNELS 3 Zrotation Yrotation Xrotation
      JOINT Chest
      {
        OFFSET 0 0 12.899191
        CHANNELS 3 Zrotation Yrotation Xrotation
        JOINT LeftShoulder
        {
          OFFSET 7.550562 1.41573 9.438202
          CHANNELS 3 Zrotation Yrotation Xrotation
          JOINT LeftArm
          {
            OFFSET 9.155056 0 4.247191
            CHANNELS 3 Zrotation Yrotation Xrotation
            JOINT LeftForearm
            {
              OFFSET 0 0 25.771955
              CHANNELS 3 Zrotation Yrotation Xrotation
              JOINT LeftHand
              {
                OFFSET 0 0 25.197169
                CHANNELS 3 Zrotation Yrotation Xrotation
              }
            }
          }
        }
        JOINT RightShoulder
        {
          OFFSET -7.550562 1.41573 9.438202
          CHANNELS 3 Zrotation Yrotation Xrotation
          JOINT RightArm
          {
            OFFSET -9.155056 0 4.247191
            CHANNELS 3 Zrotation Yrotation Xrotation
            JOINT RightForearm
            {
              OFFSET 0 0 -25.771955
              CHANNELS 3 Zrotation Yrotation Xrotation
              JOINT RightHand
              {
                OFFSET 0 0 -25.197169
                CHANNELS 3 Zrotation Yrotation Xrotation
              }
            }
          }
        }
        JOINT Neck
        {
          OFFSET 0 0 15.101124
          CHANNELS 3 Zrotation Yrotation Xrotation
          JOINT Head
          {
            OFFSET 0 0 11.325843
            CHANNELS 3 Zrotation Yrotation Xrotation
            End Site
            {
              OFFSET 0 0 14.157303
            }
          }
        }
      }
    }
  }
}
MOTION
Frames: 7
Frame Time: 0.0
0.0  89.887642  0.0  0.413737  -60.023034  -99.647881  9.99748  -14.748293  13.549852  18.235166  1.581186  24.395042  4.677757  1.154208  1.243053  -0.661275  2.337198  -13.642983  -0.265144  4.852016  16.25674  10.794949  0.439202  -0.191012  1.836663  0.354039  0.46534  5.02724  0.931722  1.298073  5.02724  0.931722  1.298074  -29.321604  8.522136  -0.910557  152.170165  33.649773  -145.844966  -44.538115  24.045893  86.964864  56.667542  -12.140142  -16.99324  6.176359  -17.434542  17.435736  143.606517  36.792129  66.158893  14.900096  13.019503  -13.41683  98.71316  -0.931777  11.690701  12.197123  -2.917047  3.405198  9.162457  -2.120908  2.612853  
0.0  89.887642  0.0  1.748446  -62.832178  -101.031169  11.437536  -13.931785  13.74489  17.695124  1.432033  24.964009  4.81369  1.156082  1.384642  -0.203149  2.319674  -13.399393  -0.084673  4.780966  15.515857  11.049553  0.500529  -0.270912  1.715531  0.463817  0.671684  4.702194  1.219319  1.868006  4.702194  1.219319  1.868006  -29.964643  7.79899  -2.048069  156.051226  32.404383  -145.585052  -42.74364  27.662283  89.855336  55.515396  -12.780216  -19.211324  6.634297  -17.51911  15.551421  143.45698  37.021735  64.142389  15.346892  13.490145  -13.540499  99.223642  -0.001802  12.601349  14.665046  -2.528025  2.683555  11.008345  -1.83291  2.074472  
0.0  89.887642  0.0  3.218962  -64.974625  -102.325871  13.427231  -13.52001  13.900594  16.415123  1.632489  25.003698  4.999802  1.270561  1.58072  -0.404321  2.39152  -13.266343  0.377962  4.701433  14.657431  11.300464  0.555391  -0.337539  1.407195  0.596354  0.928959  3.869359  1.575118  2.573375  3.869358  1.575118  2.573374  -29.636757  7.300139  -3.193291  158.729908  32.044763  -145.689327  -42.207714  31.589489  92.452784  55.51702  -12.892702  -21.042026  8.085835  -17.22608  13.236068  143.638091  37.644184  62.447482  15.85499  13.749418  -12.998362  100.814885  -1.611779  12.189688  17.455389  -1.970046  1.641279  13.095647  -1.432039  1.288399  
0.0  89.887642  0.0  4.85896  -66.320135  -103.575153  15.050663  -13.095847  13.887051  15.474321  1.939183  24.875662  5.143926  1.327295  1.701268  -1.053302  2.750279  -13.228806  0.978261  4.557905  13.731831  11.539536  0.562299  -0.415599  0.858486  0.707357  1.086009  2.37841  1.894207  2.993936  2.37841  1.894207  2.993936  -28.03349  7.54497  -3.916239  160.632455  32.012042  -145.315109  -42.319211  34.468158  94.589179  56.473944  -12.654058  -22.416604  10.29541  -16.617101  11.658781  143.920097  38.291983  61.437892  15.456122  13.829182  -13.306419  102.811035  -4.707124  9.965545  20.584721  -1.382151  0.927176  15.439925  -1.006724  0.742941  
0.0  89.887642  0.0  6.516857  -66.878866  -104.84278  15.821061  -12.431065  13.63459  15.404955  2.007772  24.945394  5.324974  1.468388  1.88157  -1.869313  3.409177  -13.093213  1.443738  4.333878  12.796481  11.787111  0.587983  -0.518474  0.182167  0.785407  1.151236  0.53537  2.137586  3.153699  0.53537  2.137586  3.153699  -25.803122  8.492869  -4.366185  162.146949  31.944944  -144.880764  -42.63522  36.245336  96.632952  57.425586  -11.778009  -23.570458  12.524342  -15.67222  10.86142  143.441063  39.123837  60.325334  14.486028  13.697234  -14.12103  104.863044  -7.667201  7.209002  23.449655  -0.848937  0.570042  17.587727  -0.61589  0.460934  
0.0  89.887642  0.0  8.065131  -66.627501  -105.99976  16.063385  -11.399334  13.316147  15.725769  1.673727  24.963062  5.267179  1.575285  1.91203  -2.798385  4.348047  -12.970561  1.631784  4.07962  11.978956  12.026715  0.683516  -0.609359  -0.454799  0.854654  1.184805  -1.201396  2.357658  3.223596  -1.201396  2.357658  3.223595  -24.017521  9.783201  -4.618491  162.759496  32.019727  -144.433502  -43.005307  36.972258  99.030658  58.47424  -10.179356  -25.162863  13.940676  -14.589632  10.202798  141.784116  40.05229  58.531579  13.625154  13.809891  -15.159687  106.25276  -9.593105  5.34352  25.885452  -0.347517  0.515112  19.414339  -0.239308  0.401925  
0.0  89.887642  0.0  9.536197  -65.449465  -107.044533  16.269753  -10.405295  12.882551  15.811829  1.436927  24.942821  5.028137  1.595305  1.916162  -3.96056  5.595824  -12.878387  1.449089  3.91516  11.30339  12.009109  0.796415  -0.7083  -1.106887  1.048407  1.227735  -2.973205  2.920392  3.30906  -2.973205  2.920392  3.30906  -22.489976  10.463286  -4.750416  162.492077  32.321233  -144.285738  -45.06365  36.254889  101.008751  58.793302  -6.821253  -26.351258  14.990815  -13.9498  9.135141  138.93118  40.974658  55.977903  13.255032  14.697412  -16.432821  106.568131  -10.351864  4.813115  27.720663  -0.122986  0.219739  20.790538  -0.082462  0.170807  
